<svg width="25" height="25" viewBox="0 0 25 25" fill="none" xmlns="http://www.w3.org/2000/svg">
<path d="M2.78697 5.58599C3.45369 4.87236 4.55569 3.77308 5.44589 2.89585C6.22783 2.1253 7.4844 2.13999 8.25495 2.92191L10.3957 5.09417C10.9761 5.68313 10.9547 6.62003 10.4206 7.25126C8.70233 9.28181 8.9956 10.5302 11.7377 13.2723C14.4822 16.0168 15.6923 16.2701 17.7233 14.5442C18.3513 14.0105 19.285 13.9922 19.872 14.5707L22.0782 16.745C22.8606 17.5161 22.8747 18.7737 22.1033 19.5557C21.2279 20.4432 20.1315 21.5421 19.4154 22.2144C15.1824 26.1882 -1.17711 9.82897 2.78697 5.58599Z" stroke="#25235C" stroke-width="2"/>
</svg>
