<svg width="25" height="24" viewBox="0 0 25 24" fill="none" xmlns="http://www.w3.org/2000/svg">
<path d="M12.5118 1.625C16.7743 1.625 20.7339 4.90179 20.7339 9.03571C20.7339 11.7682 19.7723 13.7001 18.1607 15.9524C16.3423 18.4939 14.0149 20.885 13.005 21.884C12.7228 22.1632 12.2767 22.1632 11.9945 21.884C10.9846 20.885 8.65724 18.4939 6.83879 15.9524C5.22724 13.7001 4.26562 11.7682 4.26562 9.03571C4.26562 4.90179 8.22516 1.625 12.4876 1.625" stroke="#25235C" stroke-width="2" stroke-linecap="round"/>
<path d="M15.5875 9.47229C15.5875 11.1255 14.2096 12.4927 12.5046 12.4927C10.7996 12.4927 9.41193 11.1255 9.41193 9.47229C9.41193 7.81906 10.7996 6.56536 12.5046 6.56536C14.2096 6.56536 15.5875 7.81906 15.5875 9.47229Z" stroke="#25235C" stroke-width="2"/>
</svg>
